<svg id="Layer_1" data-name="Layer 1" xmlns="http://www.w3.org/2000/svg" viewBox="0 0 1396.24 466.34"><defs><style>.cls-1{font-size:254px;font-family:Oslo-Bold, Oslo;font-weight:700;}</style></defs><title>Artboard 2</title><path d="M0,25.4H203.2V38.1H12.7v82.55H203.2v12.7H12.7V228.6H0Z"/><path d="M224.79,127a86.64,86.64,0,0,0,7,34.54,88.83,88.83,0,0,0,47.38,47.37,88.83,88.83,0,0,0,69.08,0,88.86,88.86,0,0,0,47.37-47.37,86.48,86.48,0,0,0,7-34.54V25.4h12.7V127a99,99,0,0,1-8,39.62,101.47,101.47,0,0,1-54,54,102.11,102.11,0,0,1-79.24,0,101.47,101.47,0,0,1-54-54,99,99,0,0,1-8-39.62V25.4h12.7Z"/><path d="M424.43,25.4h203.2V38.1H532.38V228.6h-12.7V38.1H424.43Z"/><path d="M649,177.8a36.8,36.8,0,0,0,3,14.86,38.06,38.06,0,0,0,20.19,20.19,37.72,37.72,0,0,0,29.72,0,38,38,0,0,0,20.19-20.19,36.63,36.63,0,0,0,3-14.86V25.4h12.7V177.8a48.46,48.46,0,0,1-4.06,19.68,51.5,51.5,0,0,1-27,27.05,49.64,49.64,0,0,1-39.37,0,51.5,51.5,0,0,1-27-27.05,48.47,48.47,0,0,1-4.07-19.68V25.4H649Z"/><path d="M747.27,25.4h149.1a54.27,54.27,0,0,1,49.91,75.18,52.46,52.46,0,0,1-11.56,17.15,55.11,55.11,0,0,1-17.27,11.43,53.66,53.66,0,0,1-21.08,4.19H865.63l89.66,95.25H937.77l-89.41-95.25H760V228.6h-12.7ZM760,38.1v82.55h136.4a41,41,0,0,0,29.21-11.94,42.72,42.72,0,0,0,8.89-13.08,41.07,41.07,0,0,0,0-32.26,42.18,42.18,0,0,0-22-22,39.53,39.53,0,0,0-16.12-3.3Z"/><path d="M959.36,25.4h203.2V38.1H972.06v82.55h190.5v12.7H972.06V215.9h190.5v12.7H959.36Z"/><text class="cls-1" transform="translate(0 439.67)"> </text><path d="M212.09,236.47h12.7V427h190.5v12.7H212.09Z"/><path d="M424.43,236.47H526v12.7h-88.9v82.55H526v12.7h-88.9V427H526v12.7H424.43Z"/><path d="M636.27,331.72h101.6v108h-12.7V387.35a105.61,105.61,0,0,1-15.87,21.33,100.17,100.17,0,0,1-20.71,16.52,102.61,102.61,0,0,1-24.76,10.66,99.84,99.84,0,0,1-27.56,3.81,98.79,98.79,0,0,1-39.62-8,101.41,101.41,0,0,1-54-54,102.13,102.13,0,0,1,0-79.25,101.47,101.47,0,0,1,54-54,102.07,102.07,0,0,1,70.23-3.3,102.73,102.73,0,0,1,26.79,13.08,101,101,0,0,1,21.59,20.07A105.66,105.66,0,0,1,730.5,300h-14a90.16,90.16,0,0,0-32.26-36.7,88.79,88.79,0,0,0-22.61-10.41,89,89,0,0,0-59.94,3.3,88.86,88.86,0,0,0-47.37,47.37,88.86,88.86,0,0,0,0,69.09A88.86,88.86,0,0,0,601.73,420a89.32,89.32,0,0,0,67.69.63,88.41,88.41,0,0,0,46.86-43.81,88,88,0,0,0,8.64-32.39H636.27Z"/><path d="M747,236.47h101.6v12.7h-88.9v82.55h88.9v12.7h-88.9V427h88.9v12.7H747Z"/><path d="M857.5,439.67V236.47h12.7L1048,426V236.47h12.7v203l.26.25h-17.53L870.2,255V439.67Z"/><path d="M1069.85,236.47h50.8a48.47,48.47,0,0,1,19.68,4.07,51.5,51.5,0,0,1,27.05,27,48.47,48.47,0,0,1,4.07,19.68v101.6a48.48,48.48,0,0,1-4.07,19.69,51.5,51.5,0,0,1-27.05,27.05,48.46,48.46,0,0,1-19.68,4.06h-50.8Zm88.9,49.53a37.52,37.52,0,0,0-3.3-14.35,37.84,37.84,0,0,0-20.07-19.56,37.34,37.34,0,0,0-14.73-2.92h-38.1V427h38.1a36.66,36.66,0,0,0,14.86-3.05,38,38,0,0,0,20.19-20.19,36.76,36.76,0,0,0,3-14.86Z"/><path d="M1370.84,290.58a41,41,0,0,0-11.94-29.22,43,43,0,0,0-13.08-8.89,39.78,39.78,0,0,0-16.13-3.3h-95.5a39.71,39.71,0,0,0-16.13,3.3,42.72,42.72,0,0,0-13.08,8.89,41.12,41.12,0,0,0,29.21,70.36h95.5a53.59,53.59,0,0,1,21.08,4.19,52.46,52.46,0,0,1,17.15,11.56,55.11,55.11,0,0,1,11.43,17.27,53.74,53.74,0,0,1-49.66,74.93h-95.5a53.47,53.47,0,0,1-21.09-4.19A52.21,52.21,0,0,1,1196,423.92a54.54,54.54,0,0,1-11.43-17.27,53.59,53.59,0,0,1-4.19-21.08H1193A40.85,40.85,0,0,0,1205,414.78a42.37,42.37,0,0,0,13.08,8.89,39.55,39.55,0,0,0,16.13,3.3h95.5a41.27,41.27,0,0,0,29.21-70.35,42.81,42.81,0,0,0-13.08-8.9,39.78,39.78,0,0,0-16.13-3.3h-95.5a54.06,54.06,0,0,1-49.66-74.93A54.77,54.77,0,0,1,1196,252.22a52.52,52.52,0,0,1,17.14-11.56,53.64,53.64,0,0,1,21.09-4.19h95.5a53.59,53.59,0,0,1,21.08,4.19,52.46,52.46,0,0,1,17.15,11.56,55.11,55.11,0,0,1,11.43,17.27,53.68,53.68,0,0,1,4.19,21.09Z"/></svg>
